PathFileType	4	(X/Y/Z)	C:\Users\Graham\Documents\MATLAB\MOtoNMS_v2_2\MyData\ElaboratedData\S9\22-05-17\staticElaborations\Static1\Static1\\Static1.trc
DataRate	CameraRate	NumFrames	NumMarkers	Units	OrigDataRate	DataStartFrame
100	100	4	38	mm	100	2
Frame#	Time	V_Sacral			R_ASIS			L_ASIS			R_Knee_Lat			R_Knee_Med			R_Thigh_Upper			R_Thigh_Front			R_Thigh_Rear			L_Knee_Lat			L_Knee_Med			L_Thigh_Upper			L_Thigh_Front			L_Thigh_Rear			R_Ankle_Lat			R_Ankle_Med			R_Shank_Upper			R_Shank_Front			R_Shank_Rear			L_Ankle_Lat			L_Ankle_Med			L_Shank_Upper			L_Shank_Front			L_Shank_Rear			R_Heel			R_MTP1			R_MTP5			L_Heel			L_MTP1			L_MTP5			Clavicle			R_Acromium			L_Acromium			LAJC			RAJC			LHJC			RHJC			LKJC			RKJC		
		X1	Y1	Z1	X2	Y2	Z2	X3	Y3	Z3	X4	Y4	Z4	X5	Y5	Z5	X6	Y6	Z6	X7	Y7	Z7	X8	Y8	Z8	X9	Y9	Z9	X10	Y10	Z10	X11	Y11	Z11	X12	Y12	Z12	X13	Y13	Z13	X14	Y14	Z14	X15	Y15	Z15	X16	Y16	Z16	X17	Y17	Z17	X18	Y18	Z18	X19	Y19	Z19	X20	Y20	Z20	X21	Y21	Z21	X22	Y22	Z22	X23	Y23	Z23	X24	Y24	Z24	X25	Y25	Z25	X26	Y26	Z26	X27	Y27	Z27	X28	Y28	Z28	X29	Y29	Z29	X30	Y30	Z30	X31	Y31	Z31	X32	Y32	Z32	X33	Y33	Z33	X34	Y34	Z34	X35	Y35	Z35	X36	Y36	Z36	X37	Y37	Z37	X38	Y38	Z38	

56	0.550000	-158.234576	1026.180997	-4.131423	7.537344	1000.730893	156.893292	59.453870	1008.220453	-84.136823	-96.907155	497.401999	165.340994	-101.247386	476.110346	52.065788	30.808955	722.312077	137.767811	2.093435	612.792776	93.866915	-3.676773	607.702049	171.157877	-61.323135	497.174765	-149.278940	-77.543430	473.785489	-36.130201	66.544155	717.762299	-81.884047	33.992474	607.388852	-53.120033	39.283963	607.726775	-120.357877	-144.915463	96.120662	146.093316	-126.201402	100.778156	56.010533	-60.518888	340.395881	136.138952	-94.370892	229.495326	77.774996	-99.391121	223.762105	159.460043	-136.398002	89.726031	-152.220180	-125.907865	97.867791	-58.179873	-41.298079	335.648827	-121.150404	-70.944693	221.004178	-74.368627	-81.171319	222.230985	-155.321200	-204.160328	43.319806	112.956146	35.198955	59.468423	78.476601	21.942531	51.117362	161.088284	-201.886041	44.823202	-110.808747	40.101330	55.302547	-69.119561	36.843828	49.339591	-148.776281	32.179976	1406.072178	45.437771	-102.237948	1473.900510	223.668250	-40.632794	1512.631227	-169.224681	-131.152933	93.796911	-105.200026	-135.558433	98.449409	101.051924	-12.074602	929.123096	-66.556607	-49.412343	923.736695	106.789354	-69.433283	485.480127	-92.704571	-99.077271	486.756172	108.703391	
57	0.560000	-158.308756	1026.172620	-4.079739	7.580477	1000.750648	156.844164	59.321629	1008.237322	-84.218760	-96.879301	497.399592	165.350877	-101.246141	476.112683	52.067301	30.841874	722.315901	137.715377	2.095093	612.792327	93.827407	-3.622653	607.709623	171.122173	-61.381194	497.183851	-149.302258	-77.578294	473.787437	-36.140483	66.456983	717.784118	-81.952019	33.942883	607.411210	-53.170761	39.198519	607.744051	-120.414454	-144.912969	96.119957	146.098306	-126.200336	100.778783	56.011004	-60.507363	340.393279	136.135854	-94.370198	229.496210	77.774901	-99.378291	223.759748	159.461338	-136.401497	89.723146	-152.223245	-125.911568	97.865535	-58.180471	-41.338844	335.658376	-121.163984	-70.812948	221.006088	-74.395721	-81.201312	222.234455	-155.327623	-204.160573	43.320124	112.958539	35.198617	59.468008	78.475669	21.943107	51.117519	161.087436	-201.888173	44.820873	-110.808405	40.100319	55.307932	-69.125116	36.840471	49.342292	-148.776849	32.083487	1406.091358	45.354469	-102.202821	1473.951056	223.671772	-40.916000	1512.611833	-169.275003	-131.156532	93.794341	-105.201858	-135.556652	98.449370	101.054655	-12.183616	929.132556	-66.584746	-49.395291	923.748222	106.785092	-69.479744	485.485644	-92.721371	-99.062721	486.756138	108.709089	
58	0.570000	-158.382712	1026.164185	-4.024974	7.628928	1000.770900	156.793655	59.189236	1008.255084	-84.303362	-96.840712	497.394841	165.367488	-101.243798	476.115742	52.069320	30.882203	722.320991	137.663696	2.099813	612.791537	93.787269	-3.565108	607.716757	171.085574	-61.444032	497.187429	-149.307052	-77.614388	473.790035	-36.151225	66.369071	717.806233	-82.021638	33.890867	607.432553	-53.222240	39.110639	607.761799	-120.470705	-144.909198	96.118717	146.101891	-126.199105	100.779724	56.011838	-60.493527	340.390803	136.133049	-94.368692	229.496683	77.774643	-99.363336	223.757691	159.462868	-136.404770	89.720238	-152.226163	-125.914383	97.863284	-58.180407	-41.380961	335.668437	-121.176833	-70.688328	221.008362	-74.421567	-81.231803	222.238530	-155.333900	-204.160108	43.320480	112.961436	35.198182	59.467590	78.474391	21.943699	51.117526	161.086610	-201.890269	44.818811	-110.808184	40.099668	55.312972	-69.130365	36.836867	49.345146	-148.777735	31.984265	1406.110699	45.270444	-102.167995	1474.004051	223.675066	-41.210996	1512.589762	-169.327566	-131.159577	93.791761	-105.203285	-135.554152	98.449220	101.056864	-12.292284	929.142527	-66.614026	-49.373955	923.759974	106.780600	-69.529210	485.488732	-92.729139	-99.042255	486.755292	108.718404	
59	0.580000	-158.457010	1026.155601	-3.966680	7.681335	1000.790625	156.741756	59.056075	1008.273713	-84.390386	-96.790970	497.387484	165.391047	-101.240104	476.119264	52.072054	30.929348	722.327288	137.612755	2.108044	612.790629	93.746738	-3.504722	607.723406	171.048170	-61.512081	497.186297	-149.296286	-77.651980	473.793561	-36.162384	66.280511	717.828782	-82.093203	33.836478	607.453149	-53.274516	39.020563	607.780127	-120.526475	-144.904074	96.117077	146.103879	-126.197830	100.780932	56.013052	-60.477361	340.388282	136.130511	-94.366154	229.496732	77.774341	-99.346195	223.755804	159.464702	-136.407806	89.717443	-152.228879	-125.916485	97.861192	-58.179828	-41.424271	335.678890	-121.188950	-70.577624	221.011129	-74.444952	-81.262685	222.242914	-155.339808	-204.159098	43.320861	112.964714	35.197598	59.467205	78.472782	21.944272	51.117428	161.085887	-201.892247	44.816932	-110.808022	40.099361	55.317440	-69.135077	36.833401	49.347906	-148.778954	31.882406	1406.130323	45.184556	-102.130111	1474.059756	223.678997	-41.518985	1512.565981	-169.382721	-131.162146	93.789317	-105.204354	-135.550952	98.449005	101.058465	-12.401304	929.153026	-66.644769	-49.349571	923.771254	106.775374	-69.582030	485.489929	-92.729335	-99.015537	486.753374	108.731551	
